<svg width="53" height="43" viewBox="0 0 53 43" fill="none" xmlns="http://www.w3.org/2000/svg">
<path d="M36.7059 8.58832L37.9353 7.01085V7.01085L36.7059 8.58832ZM33.3888 6.00299L34.6182 4.42552V4.42552L33.3888 6.00299ZM19.1332 6.00299L20.3626 7.58047L19.1332 6.00299ZM15.8161 8.58832L17.0455 10.1658V10.1658L15.8161 8.58832ZM40.5977 12.3709L42.3951 11.4937L42.3951 11.4937L40.5977 12.3709ZM39.4878 31.8741L40.9034 33.2869V33.2869L39.4878 31.8741ZM11.9242 12.3709L10.1269 11.4937V11.4937L11.9242 12.3709ZM13.0342 31.8741L11.6185 33.2869V33.2869L13.0342 31.8741ZM32.467 27.6759C33.338 26.9965 33.4933 25.7398 32.8139 24.8688C32.1346 23.9979 30.8778 23.8426 30.0068 24.5219L31.2369 26.0989L32.467 27.6759ZM22.5157 24.5219C21.6447 23.8426 20.388 23.9979 19.7086 24.8688C19.0292 25.7398 19.1846 26.9965 20.0555 27.6759L21.2856 26.0989L22.5157 24.5219ZM16.7078 40.3498C16.6803 41.454 17.5532 42.3714 18.6575 42.3989C19.7617 42.4263 20.6791 41.5534 20.7065 40.4492L18.7071 40.3995L16.7078 40.3498ZM19.368 37.1258L17.4799 36.4661V36.4661L19.368 37.1258ZM22.4843 35.3607C23.1507 34.4798 22.9768 33.2255 22.0959 32.559C21.215 31.8926 19.9607 32.0665 19.2943 32.9474L20.8893 34.154L22.4843 35.3607ZM31.6508 40.4492C31.6782 41.5534 32.5956 42.4263 33.6999 42.3989C34.8041 42.3714 35.677 41.454 35.6496 40.3498L33.6502 40.3995L31.6508 40.4492ZM32.9894 37.1258L34.8774 36.4661V36.4661L32.9894 37.1258ZM33.063 32.9474C32.3966 32.0665 31.1423 31.8926 30.2614 32.559C29.3805 33.2255 29.2067 34.4798 29.8731 35.3607L31.4681 34.154L33.063 32.9474ZM10.8945 25.3697C11.9885 25.2176 12.7521 24.2074 12.6 23.1133C12.448 22.0193 11.4378 21.2557 10.3437 21.4078L10.6191 23.3887L10.8945 25.3697ZM5.48076 22.3351L6.48231 20.6039L5.48076 22.3351ZM3.85455 17.6515C3.43968 16.6278 2.27349 16.1343 1.24979 16.5492C0.226095 16.964 -0.267461 18.1302 0.147406 19.1539L2.00098 18.4027L3.85455 17.6515ZM42.1576 21.4078C41.0635 21.2557 40.0533 22.0193 39.9013 23.1133C39.7492 24.2074 40.5128 25.2176 41.6068 25.3697L41.8822 23.3887L42.1576 21.4078ZM47.0205 22.3351L46.019 20.6039L47.0205 22.3351ZM52.3539 19.1539C52.7688 18.1302 52.2752 16.964 51.2515 16.5492C50.2278 16.1343 49.0616 16.6278 48.6468 17.6515L50.5003 18.4027L52.3539 19.1539ZM11.334 21.9439H13.334V17.7716H11.334H9.33395V21.9439H11.334ZM22.9439 33.5779V35.5779H29.5781V33.5779V31.5779H22.9439V33.5779ZM41.188 21.9439H43.188V17.7716H41.188H39.188V21.9439H41.188ZM36.7059 8.58832L37.9353 7.01085L34.6182 4.42552L33.3888 6.00299L32.1593 7.58046L35.4764 10.1658L36.7059 8.58832ZM19.1332 6.00299L17.9037 4.42552L14.5866 7.01085L15.8161 8.58832L17.0455 10.1658L20.3626 7.58047L19.1332 6.00299ZM33.3888 6.00299L34.6182 4.42552C32.9446 3.12108 31.5523 2.03175 30.3215 1.28863C29.0448 0.517777 27.756 0 26.261 0V2V4C26.7576 4 27.3207 4.14939 28.254 4.71287C29.2332 5.30408 30.4089 6.21624 32.1593 7.58046L33.3888 6.00299ZM19.1332 6.00299L20.3626 7.58047C22.113 6.21624 23.2888 5.30408 24.2679 4.71287C25.2012 4.14939 25.7643 4 26.261 4V2V0C24.7659 0 23.4771 0.517778 22.2004 1.28863C20.9697 2.03175 19.5774 3.12108 17.9037 4.42552L19.1332 6.00299ZM41.188 17.7716H43.188C43.188 15.173 43.2355 13.2157 42.3951 11.4937L40.5977 12.3709L38.8004 13.2482C39.1404 13.9449 39.188 14.7818 39.188 17.7716H41.188ZM36.7059 8.58832L35.4764 10.1658C37.8317 12.0015 38.4606 12.5521 38.8004 13.2482L40.5977 12.3709L42.3951 11.4937C41.5543 9.77098 39.9822 8.60611 37.9353 7.01085L36.7059 8.58832ZM29.5781 33.5779V35.5779C32.2579 35.5779 34.4694 35.5821 36.2147 35.347C38.018 35.104 39.6199 34.573 40.9034 33.2869L39.4878 31.8741L38.0721 30.4614C37.6553 30.879 37.0389 31.1998 35.6807 31.3828C34.2645 31.5736 32.3712 31.5779 29.5781 31.5779V33.5779ZM41.188 21.9439H39.188C39.188 24.7425 39.1838 26.6406 38.9932 28.0608C38.8104 29.4238 38.4894 30.0432 38.0721 30.4614L39.4878 31.8741L40.9034 33.2869C42.1864 32.0013 42.7155 30.3977 42.9577 28.5927C43.1922 26.8447 43.188 24.6296 43.188 21.9439H41.188ZM11.334 17.7716H13.334C13.334 14.7818 13.3815 13.9449 13.7216 13.2482L11.9242 12.3709L10.1269 11.4937C9.28639 13.2157 9.33395 15.173 9.33395 17.7716H11.334ZM15.8161 8.58832L14.5866 7.01085C12.5398 8.60611 10.9677 9.77098 10.1269 11.4937L11.9242 12.3709L13.7216 13.2482C14.0613 12.5521 14.6903 12.0015 17.0455 10.1658L15.8161 8.58832ZM11.334 21.9439H9.33395C9.33395 24.6296 9.32972 26.8447 9.56424 28.5927C9.80643 30.3977 10.3356 32.0013 11.6185 33.2869L13.0342 31.8741L14.4499 30.4614C14.0325 30.0432 13.7116 29.4238 13.5287 28.0608C13.3382 26.6406 13.334 24.7425 13.334 21.9439H11.334ZM22.9439 33.5779V31.5779C20.1507 31.5779 18.2575 31.5736 16.8413 31.3828C15.483 31.1998 14.8666 30.879 14.4499 30.4614L13.0342 31.8741L11.6185 33.2869C12.902 34.573 14.5039 35.104 16.3072 35.347C18.0526 35.5821 20.264 35.5779 22.9439 35.5779V33.5779ZM31.2369 26.0989L30.0068 24.5219C29.0383 25.2774 27.731 25.7609 26.2613 25.7609V27.7609V29.7609C28.607 29.7609 30.7835 28.9891 32.467 27.6759L31.2369 26.0989ZM26.2613 27.7609V25.7609C24.7915 25.7609 23.4843 25.2774 22.5157 24.5219L21.2856 26.0989L20.0555 27.6759C21.739 28.9891 23.9155 29.7609 26.2613 29.7609V27.7609ZM18.7071 40.3995L20.7065 40.4492C20.7234 39.7717 20.8914 38.8292 21.2561 37.7855L19.368 37.1258L17.4799 36.4661C17.0079 37.8171 16.737 39.1749 16.7078 40.3498L18.7071 40.3995ZM19.368 37.1258L21.2561 37.7855C21.6207 36.7418 22.076 35.9003 22.4843 35.3607L20.8893 34.154L19.2943 32.9474C18.5854 33.8843 17.9519 35.1152 17.4799 36.4661L19.368 37.1258ZM33.6502 40.3995L35.6496 40.3498C35.6204 39.1749 35.3494 37.8171 34.8774 36.4661L32.9894 37.1258L31.1013 37.7855C31.4659 38.8292 31.634 39.7717 31.6508 40.4492L33.6502 40.3995ZM32.9894 37.1258L34.8774 36.4661C34.4054 35.1152 33.7719 33.8843 33.063 32.9474L31.4681 34.154L29.8731 35.3607C30.2813 35.9003 30.7366 36.7418 31.1013 37.7855L32.9894 37.1258ZM10.6191 23.3887L10.3437 21.4078C9.12899 21.5766 7.75579 21.3407 6.48231 20.6039L5.48076 22.3351L4.47921 24.0662C6.51004 25.2411 8.78017 25.6636 10.8945 25.3697L10.6191 23.3887ZM5.48076 22.3351L6.48231 20.6039C5.20878 19.8671 4.31694 18.7925 3.85455 17.6515L2.00098 18.4027L0.147406 19.1539C0.949581 21.1333 2.44842 22.8913 4.47921 24.0662L5.48076 22.3351ZM41.8822 23.3887L41.6068 25.3697C43.7211 25.6636 45.9913 25.2411 48.0221 24.0662L47.0205 22.3351L46.019 20.6039C44.7455 21.3407 43.3723 21.5766 42.1576 21.4078L41.8822 23.3887ZM47.0205 22.3351L48.0221 24.0662C50.0529 22.8913 51.5517 21.1333 52.3539 19.1539L50.5003 18.4027L48.6468 17.6515C48.1844 18.7925 47.2925 19.8671 46.019 20.6039L47.0205 22.3351Z" fill="#1A1A1A"/>
</svg>
